<?xml version="1.0" encoding="UTF-8" standalone="no"?>
<!-- This is a Stata 17.0 generated SVG file (http://www.stata.com) -->

<svg version="1.1" width="4.000in" height="4.000in" viewBox="0 0 2880 2880" xmlns="http://www.w3.org/2000/svg" xmlns:xlink="http://www.w3.org/1999/xlink">
	<desc>Stata Graph - st_bias_corrected_gaps</desc>
	<rect x="0" y="0" width="2880" height="2880" style="fill:#EAF2F3;stroke:none"/>
	<rect x="0.00" y="0.00" width="2880.00" height="2880.00" style="fill:#FFFFFF"/>
	<rect x="2.88" y="2.88" width="2874.24" height="2874.24" style="fill:none;stroke:#EAF2F3;stroke-width:5.76"/>
	<rect x="390.78" y="275.40" width="2388.42" height="1772.46" style="fill:#FFFFFF"/>
	<rect x="393.66" y="278.28" width="2382.66" height="1766.70" style="fill:none;stroke:#FFFFFF;stroke-width:5.76"/>
	<rect x="395.10" y="279.72" width="2379.78" height="1763.82" style="fill:none;stroke:#000000;stroke-width:8.64"/>
	<line x1="1647.81" y1="2047.86" x2="1647.81" y2="2044.98" style="stroke:#000000;stroke-width:8.64"/>
	<line x1="1647.81" y1="2014.74" x2="1647.81" y2="2011.86" style="stroke:#000000;stroke-width:8.64"/>
	<line x1="1647.81" y1="1981.53" x2="1647.81" y2="1978.65" style="stroke:#000000;stroke-width:8.64"/>
	<line x1="1647.81" y1="1948.41" x2="1647.81" y2="1945.53" style="stroke:#000000;stroke-width:8.64"/>
	<line x1="1647.81" y1="1915.29" x2="1647.81" y2="1912.41" style="stroke:#000000;stroke-width:8.64"/>
	<line x1="1647.81" y1="1882.17" x2="1647.81" y2="1879.29" style="stroke:#000000;stroke-width:8.64"/>
	<line x1="1647.81" y1="1848.96" x2="1647.81" y2="1846.08" style="stroke:#000000;stroke-width:8.64"/>
	<line x1="1647.81" y1="1815.84" x2="1647.81" y2="1812.96" style="stroke:#000000;stroke-width:8.64"/>
	<line x1="1647.81" y1="1782.72" x2="1647.81" y2="1779.84" style="stroke:#000000;stroke-width:8.64"/>
	<line x1="1647.81" y1="1749.60" x2="1647.81" y2="1746.72" style="stroke:#000000;stroke-width:8.64"/>
	<line x1="1647.81" y1="1716.48" x2="1647.81" y2="1713.60" style="stroke:#000000;stroke-width:8.64"/>
	<line x1="1647.81" y1="1683.27" x2="1647.81" y2="1680.39" style="stroke:#000000;stroke-width:8.64"/>
	<line x1="1647.81" y1="1650.15" x2="1647.81" y2="1647.27" style="stroke:#000000;stroke-width:8.64"/>
	<line x1="1647.81" y1="1617.03" x2="1647.81" y2="1614.15" style="stroke:#000000;stroke-width:8.64"/>
	<line x1="1647.81" y1="1583.91" x2="1647.81" y2="1581.03" style="stroke:#000000;stroke-width:8.64"/>
	<line x1="1647.81" y1="1550.70" x2="1647.81" y2="1547.82" style="stroke:#000000;stroke-width:8.64"/>
	<line x1="1647.81" y1="1517.58" x2="1647.81" y2="1514.70" style="stroke:#000000;stroke-width:8.64"/>
	<line x1="1647.81" y1="1484.46" x2="1647.81" y2="1481.58" style="stroke:#000000;stroke-width:8.64"/>
	<line x1="1647.81" y1="1451.34" x2="1647.81" y2="1448.46" style="stroke:#000000;stroke-width:8.64"/>
	<line x1="1647.81" y1="1418.13" x2="1647.81" y2="1415.25" style="stroke:#000000;stroke-width:8.64"/>
	<line x1="1647.81" y1="1385.01" x2="1647.81" y2="1382.13" style="stroke:#000000;stroke-width:8.64"/>
	<line x1="1647.81" y1="1351.89" x2="1647.81" y2="1349.01" style="stroke:#000000;stroke-width:8.64"/>
	<line x1="1647.81" y1="1318.77" x2="1647.81" y2="1315.89" style="stroke:#000000;stroke-width:8.64"/>
	<line x1="1647.81" y1="1285.56" x2="1647.81" y2="1282.68" style="stroke:#000000;stroke-width:8.64"/>
	<line x1="1647.81" y1="1252.44" x2="1647.81" y2="1249.56" style="stroke:#000000;stroke-width:8.64"/>
	<line x1="1647.81" y1="1219.32" x2="1647.81" y2="1216.44" style="stroke:#000000;stroke-width:8.64"/>
	<line x1="1647.81" y1="1186.20" x2="1647.81" y2="1183.32" style="stroke:#000000;stroke-width:8.64"/>
	<line x1="1647.81" y1="1152.99" x2="1647.81" y2="1150.11" style="stroke:#000000;stroke-width:8.64"/>
	<line x1="1647.81" y1="1119.87" x2="1647.81" y2="1116.99" style="stroke:#000000;stroke-width:8.64"/>
	<line x1="1647.81" y1="1086.75" x2="1647.81" y2="1083.87" style="stroke:#000000;stroke-width:8.64"/>
	<line x1="1647.81" y1="1053.63" x2="1647.81" y2="1050.75" style="stroke:#000000;stroke-width:8.64"/>
	<line x1="1647.81" y1="1020.42" x2="1647.81" y2="1017.54" style="stroke:#000000;stroke-width:8.64"/>
	<line x1="1647.81" y1="987.30" x2="1647.81" y2="984.42" style="stroke:#000000;stroke-width:8.64"/>
	<line x1="1647.81" y1="954.18" x2="1647.81" y2="951.30" style="stroke:#000000;stroke-width:8.64"/>
	<line x1="1647.81" y1="921.06" x2="1647.81" y2="918.18" style="stroke:#000000;stroke-width:8.64"/>
	<line x1="1647.81" y1="887.85" x2="1647.81" y2="884.97" style="stroke:#000000;stroke-width:8.64"/>
	<line x1="1647.81" y1="854.73" x2="1647.81" y2="851.85" style="stroke:#000000;stroke-width:8.64"/>
	<line x1="1647.81" y1="821.61" x2="1647.81" y2="818.73" style="stroke:#000000;stroke-width:8.64"/>
	<line x1="1647.81" y1="788.49" x2="1647.81" y2="785.61" style="stroke:#000000;stroke-width:8.64"/>
	<line x1="1647.81" y1="755.28" x2="1647.81" y2="752.40" style="stroke:#000000;stroke-width:8.64"/>
	<line x1="1647.81" y1="722.16" x2="1647.81" y2="719.28" style="stroke:#000000;stroke-width:8.64"/>
	<line x1="1647.81" y1="689.04" x2="1647.81" y2="686.16" style="stroke:#000000;stroke-width:8.64"/>
	<line x1="1647.81" y1="655.92" x2="1647.81" y2="653.04" style="stroke:#000000;stroke-width:8.64"/>
	<line x1="1647.81" y1="622.71" x2="1647.81" y2="619.83" style="stroke:#000000;stroke-width:8.64"/>
	<line x1="1647.81" y1="589.59" x2="1647.81" y2="586.71" style="stroke:#000000;stroke-width:8.64"/>
	<line x1="1647.81" y1="556.47" x2="1647.81" y2="553.59" style="stroke:#000000;stroke-width:8.64"/>
	<line x1="1647.81" y1="523.35" x2="1647.81" y2="520.47" style="stroke:#000000;stroke-width:8.64"/>
	<line x1="1647.81" y1="490.14" x2="1647.81" y2="487.26" style="stroke:#000000;stroke-width:8.64"/>
	<line x1="1647.81" y1="457.02" x2="1647.81" y2="454.14" style="stroke:#000000;stroke-width:8.64"/>
	<line x1="1647.81" y1="423.90" x2="1647.81" y2="421.02" style="stroke:#000000;stroke-width:8.64"/>
	<line x1="1647.81" y1="390.78" x2="1647.81" y2="387.90" style="stroke:#000000;stroke-width:8.64"/>
	<line x1="1647.81" y1="357.57" x2="1647.81" y2="354.69" style="stroke:#000000;stroke-width:8.64"/>
	<line x1="1647.81" y1="324.45" x2="1647.81" y2="321.57" style="stroke:#000000;stroke-width:8.64"/>
	<line x1="1647.81" y1="291.33" x2="1647.81" y2="288.45" style="stroke:#000000;stroke-width:8.64"/>
	<line x1="390.78" y1="1161.63" x2="448.38" y2="1161.63" style="stroke:#404040;stroke-width:8.64"/>
	<line x1="477.18" y1="1161.63" x2="534.78" y2="1161.63" style="stroke:#404040;stroke-width:8.64"/>
	<line x1="563.58" y1="1161.63" x2="621.18" y2="1161.63" style="stroke:#404040;stroke-width:8.64"/>
	<line x1="649.98" y1="1161.63" x2="707.58" y2="1161.63" style="stroke:#404040;stroke-width:8.64"/>
	<line x1="736.38" y1="1161.63" x2="793.98" y2="1161.63" style="stroke:#404040;stroke-width:8.64"/>
	<line x1="822.78" y1="1161.63" x2="880.38" y2="1161.63" style="stroke:#404040;stroke-width:8.64"/>
	<line x1="909.18" y1="1161.63" x2="966.78" y2="1161.63" style="stroke:#404040;stroke-width:8.64"/>
	<line x1="995.58" y1="1161.63" x2="1053.18" y2="1161.63" style="stroke:#404040;stroke-width:8.64"/>
	<line x1="1081.98" y1="1161.63" x2="1139.58" y2="1161.63" style="stroke:#404040;stroke-width:8.64"/>
	<line x1="1168.38" y1="1161.63" x2="1225.98" y2="1161.63" style="stroke:#404040;stroke-width:8.64"/>
	<line x1="1254.78" y1="1161.63" x2="1312.38" y2="1161.63" style="stroke:#404040;stroke-width:8.64"/>
	<line x1="1341.18" y1="1161.63" x2="1398.78" y2="1161.63" style="stroke:#404040;stroke-width:8.64"/>
	<line x1="1427.58" y1="1161.63" x2="1485.18" y2="1161.63" style="stroke:#404040;stroke-width:8.64"/>
	<line x1="1513.98" y1="1161.63" x2="1571.58" y2="1161.63" style="stroke:#404040;stroke-width:8.64"/>
	<line x1="1600.38" y1="1161.63" x2="1657.98" y2="1161.63" style="stroke:#404040;stroke-width:8.64"/>
	<line x1="1686.78" y1="1161.63" x2="1744.38" y2="1161.63" style="stroke:#404040;stroke-width:8.64"/>
	<line x1="1773.18" y1="1161.63" x2="1830.78" y2="1161.63" style="stroke:#404040;stroke-width:8.64"/>
	<line x1="1859.58" y1="1161.63" x2="1917.18" y2="1161.63" style="stroke:#404040;stroke-width:8.64"/>
	<line x1="1945.98" y1="1161.63" x2="2003.58" y2="1161.63" style="stroke:#404040;stroke-width:8.64"/>
	<line x1="2032.38" y1="1161.63" x2="2089.98" y2="1161.63" style="stroke:#404040;stroke-width:8.64"/>
	<line x1="2118.78" y1="1161.63" x2="2176.38" y2="1161.63" style="stroke:#404040;stroke-width:8.64"/>
	<line x1="2205.18" y1="1161.63" x2="2262.78" y2="1161.63" style="stroke:#404040;stroke-width:8.64"/>
	<line x1="2291.58" y1="1161.63" x2="2349.18" y2="1161.63" style="stroke:#404040;stroke-width:8.64"/>
	<line x1="2377.98" y1="1161.63" x2="2435.58" y2="1161.63" style="stroke:#404040;stroke-width:8.64"/>
	<line x1="2464.38" y1="1161.63" x2="2521.98" y2="1161.63" style="stroke:#404040;stroke-width:8.64"/>
	<line x1="2550.78" y1="1161.63" x2="2608.38" y2="1161.63" style="stroke:#404040;stroke-width:8.64"/>
	<line x1="2637.18" y1="1161.63" x2="2694.78" y2="1161.63" style="stroke:#404040;stroke-width:8.64"/>
	<line x1="2723.58" y1="1161.63" x2="2779.20" y2="1161.63" style="stroke:#404040;stroke-width:8.64"/>
	<path d=" M390.78 1092.69 L422.19 1215.27 L453.60 1058.31 L485.01 1031.31 L516.42 1132.11 L547.92 1091.34 L579.33 1195.65 L610.74 1097.46 L642.15 1133.73 L673.56 1153.08 L704.97 1114.83 L736.47 1165.77 L767.88 1166.31 L799.29 1179.54 L830.70 1186.20 L862.11 1209.69 L893.61 1142.28 L925.02 1153.53 L956.43 1198.26 L987.84 1139.22 L1019.25 1155.60 L1050.66 1166.58 L1082.16 1140.66 L1113.57 1120.05 L1144.98 1142.10 L1176.39 1173.42 L1207.80 1135.71 L1239.30 1151.55 L1270.71 1120.41 L1302.12 1105.92 L1333.53 1078.02 L1364.94 1052.55 L1396.35 1112.67 L1427.85 1097.82 L1459.26 1085.31 L1490.67 1103.76 L1522.08 1124.28 L1553.49 1097.19 L1584.99 1092.15 L1616.40 1137.06 L1647.81 1135.71 L1679.22 1120.95 L1710.63 1113.21 L1742.04 1105.92 L1773.54 1136.16 L1804.95 1146.96 L1836.36 1147.77 L1867.77 1123.38 L1899.18 1140.39 L1930.68 1140.03 L1962.09 1159.92 L1993.50 1145.79 L2024.91 1157.40 L2056.32 1152.36 L2087.73 1153.26 L2119.23 1161.36 L2150.64 1144.80 L2182.05 1144.44 L2213.46 1152.63 L2244.87 1153.71 L2276.37 1161.72 L2307.78 1151.82 L2339.19 1156.50 L2370.60 1153.62 L2402.01 1137.60 L2433.42 1157.04 L2464.92 1149.30 L2496.33 1149.39 L2527.74 1148.31 L2559.15 1145.43 L2590.56 1148.94 L2622.06 1144.98 L2653.47 1154.79 L2684.88 1148.58 L2716.29 1154.97 L2747.70 1149.84 L2779.20 1153.53" stroke-linejoin="round" style="fill:none;stroke:#FFFFFF;stroke-width:8.64"/>
	<path d=" M390.78 1333.98 L422.19 1301.58 L453.60 955.62 L485.01 897.84 L516.42 1126.80 L547.92 709.47 L579.33 657.09 L610.74 855.00 L642.15 928.53 L673.56 986.67 L704.97 894.06 L736.47 1042.20 L767.88 1018.26 L799.29 885.15 L830.70 961.11 L862.11 1021.05 L893.61 972.18 L925.02 1106.82 L956.43 1199.97 L987.84 1019.52 L1019.25 938.79 L1050.66 1042.02 L1082.16 942.30 L1113.57 1063.08 L1144.98 1115.46 L1176.39 1083.87 L1207.80 943.83 L1239.30 895.32 L1270.71 1005.57 L1302.12 1054.35 L1333.53 1143.45 L1364.94 994.41 L1396.35 1000.71 L1427.85 734.67 L1459.26 853.47 L1490.67 920.16 L1522.08 1017.72 L1553.49 908.91 L1584.99 1030.77 L1616.40 959.40 L1647.81 948.15 L1679.22 945.27 L1710.63 1001.70 L1742.04 1012.59 L1773.54 1093.50 L1804.95 1084.23 L1836.36 1113.12 L1867.77 984.78 L1899.18 1041.03 L1930.68 1036.26 L1962.09 1058.76 L1993.50 1092.24 L2024.91 1150.20 L2056.32 1111.14 L2087.73 1064.16 L2119.23 1078.65 L2150.64 1054.35 L2182.05 1095.93 L2213.46 1085.76 L2244.87 1132.74 L2276.37 1094.40 L2307.78 1038.42 L2339.19 1044.00 L2370.60 1054.53 L2402.01 1073.25 L2433.42 1084.50 L2464.92 1114.92 L2496.33 1080.72 L2527.74 1055.97 L2559.15 1052.73 L2590.56 1068.66 L2622.06 1112.76 L2653.47 1100.16 L2684.88 1121.13 L2716.29 1104.48 L2747.70 1066.68 L2779.20 1102.41" stroke-linejoin="round" style="fill:none;stroke:#000000;stroke-width:8.64"/>
	<line x1="390.78" y1="2047.86" x2="390.78" y2="275.40" style="stroke:#000000;stroke-width:5.76"/>
	<line x1="390.78" y1="2047.86" x2="350.82" y2="2047.86" style="stroke:#000000;stroke-width:5.76"/>
	<text x="300.80" y="2047.86" style="font-family:'Helvetica';font-size:99.99px;fill:#000000" transform="rotate(-90 300.80,2047.86)" text-anchor="middle">-.01</text>
	<text x="190.73" y="1161.63" style="font-family:'Helvetica';font-size:99.99px;fill:#000000" transform="rotate(-90 190.73,1161.63)" text-anchor="middle"> Gap </text>
	<line x1="390.78" y1="2047.86" x2="2779.20" y2="2047.86" style="stroke:#000000;stroke-width:5.76"/>
	<line x1="390.78" y1="2047.86" x2="390.78" y2="2087.82" style="stroke:#000000;stroke-width:5.76"/>
	<text x="425.80" y="2107.89" style="font-family:'Helvetica';font-size:99.99px;fill:#000000" transform="rotate(-90 425.80,2107.89)" text-anchor="end">0</text>
	<line x1="799.38" y1="2047.86" x2="799.38" y2="2087.82" style="stroke:#000000;stroke-width:5.76"/>
	<text x="834.40" y="2107.89" style="font-family:'Helvetica';font-size:99.99px;fill:#000000" transform="rotate(-90 834.40,2107.89)" text-anchor="end">13</text>
	<line x1="1207.89" y1="2047.86" x2="1207.89" y2="2087.82" style="stroke:#000000;stroke-width:5.76"/>
	<text x="1242.91" y="2107.89" style="font-family:'Helvetica';font-size:99.99px;fill:#000000" transform="rotate(-90 1242.91,2107.89)" text-anchor="end">26</text>
	<line x1="1616.40" y1="2047.86" x2="1616.40" y2="2087.82" style="stroke:#000000;stroke-width:5.76"/>
	<text x="1651.42" y="2107.89" style="font-family:'Helvetica';font-size:99.99px;fill:#000000" transform="rotate(-90 1651.42,2107.89)" text-anchor="end">39</text>
	<line x1="2025.00" y1="2047.86" x2="2025.00" y2="2087.82" style="stroke:#000000;stroke-width:5.76"/>
	<text x="2060.02" y="2107.89" style="font-family:'Helvetica';font-size:99.99px;fill:#000000" transform="rotate(-90 2060.02,2107.89)" text-anchor="end">52</text>
	<line x1="2433.51" y1="2047.86" x2="2433.51" y2="2087.82" style="stroke:#000000;stroke-width:5.76"/>
	<text x="2468.53" y="2107.89" style="font-family:'Helvetica';font-size:99.99px;fill:#000000" transform="rotate(-90 2468.53,2107.89)" text-anchor="end">65</text>
	<line x1="2842.02" y1="2047.86" x2="2842.02" y2="2087.82" style="stroke:#000000;stroke-width:5.76"/>
	<text x="2877.04" y="2107.89" style="font-family:'Helvetica';font-size:99.99px;fill:#000000" transform="rotate(-90 2877.04,2107.89)" text-anchor="end">78</text>
	<text x="1584.99" y="2333.63" style="font-family:'Helvetica';font-size:99.99px;fill:#000000" text-anchor="middle"> </text>
	<rect x="885.60" y="2418.21" width="1398.78" height="326.43" style="fill:#FFFFFF"/>
	<rect x="888.48" y="2421.09" width="1393.02" height="320.67" style="fill:none;stroke:#000000;stroke-width:5.76"/>
	<line x1="928.80" y1="2511.45" x2="1303.20" y2="2511.45" style="stroke:#FFFFFF;stroke-width:8.64"/>
	<line x1="928.80" y1="2651.40" x2="1303.20" y2="2651.40" style="stroke:#000000;stroke-width:8.64"/>
	<text x="1363.23" y="2546.47" style="font-family:'Helvetica';font-size:99.99px;fill:#000000"> </text>
	<text x="1363.23" y="2686.42" style="font-family:'Helvetica';font-size:99.99px;fill:#000000"> Bias-corrected SC</text>
	<text x="1584.99" y="216.06" style="font-family:'Helvetica';font-size:140.04px;fill:#1E2D53" text-anchor="middle"> </text>
</svg>
