<?xml version="1.0" encoding="UTF-8" standalone="no"?>
<!-- This is a Stata 17.0 generated SVG file (http://www.stata.com) -->

<svg version="1.1" width="4.000in" height="4.000in" viewBox="0 0 2880 2880" xmlns="http://www.w3.org/2000/svg" xmlns:xlink="http://www.w3.org/1999/xlink">
	<desc>Stata Graph - st_classic_gaps</desc>
	<rect x="0" y="0" width="2880" height="2880" style="fill:#EAF2F3;stroke:none"/>
	<rect x="0.00" y="0.00" width="2880.00" height="2880.00" style="fill:#FFFFFF"/>
	<rect x="2.88" y="2.88" width="2874.24" height="2874.24" style="fill:none;stroke:#EAF2F3;stroke-width:5.76"/>
	<rect x="390.78" y="275.40" width="2388.42" height="1772.46" style="fill:#FFFFFF"/>
	<rect x="393.66" y="278.28" width="2382.66" height="1766.70" style="fill:none;stroke:#FFFFFF;stroke-width:5.76"/>
	<rect x="395.10" y="279.72" width="2379.78" height="1763.82" style="fill:none;stroke:#000000;stroke-width:8.64"/>
	<line x1="1647.81" y1="2047.86" x2="1647.81" y2="2044.98" style="stroke:#000000;stroke-width:8.64"/>
	<line x1="1647.81" y1="2014.74" x2="1647.81" y2="2011.86" style="stroke:#000000;stroke-width:8.64"/>
	<line x1="1647.81" y1="1981.53" x2="1647.81" y2="1978.65" style="stroke:#000000;stroke-width:8.64"/>
	<line x1="1647.81" y1="1948.41" x2="1647.81" y2="1945.53" style="stroke:#000000;stroke-width:8.64"/>
	<line x1="1647.81" y1="1915.29" x2="1647.81" y2="1912.41" style="stroke:#000000;stroke-width:8.64"/>
	<line x1="1647.81" y1="1882.17" x2="1647.81" y2="1879.29" style="stroke:#000000;stroke-width:8.64"/>
	<line x1="1647.81" y1="1848.96" x2="1647.81" y2="1846.08" style="stroke:#000000;stroke-width:8.64"/>
	<line x1="1647.81" y1="1815.84" x2="1647.81" y2="1812.96" style="stroke:#000000;stroke-width:8.64"/>
	<line x1="1647.81" y1="1782.72" x2="1647.81" y2="1779.84" style="stroke:#000000;stroke-width:8.64"/>
	<line x1="1647.81" y1="1749.60" x2="1647.81" y2="1746.72" style="stroke:#000000;stroke-width:8.64"/>
	<line x1="1647.81" y1="1716.48" x2="1647.81" y2="1713.60" style="stroke:#000000;stroke-width:8.64"/>
	<line x1="1647.81" y1="1683.27" x2="1647.81" y2="1680.39" style="stroke:#000000;stroke-width:8.64"/>
	<line x1="1647.81" y1="1650.15" x2="1647.81" y2="1647.27" style="stroke:#000000;stroke-width:8.64"/>
	<line x1="1647.81" y1="1617.03" x2="1647.81" y2="1614.15" style="stroke:#000000;stroke-width:8.64"/>
	<line x1="1647.81" y1="1583.91" x2="1647.81" y2="1581.03" style="stroke:#000000;stroke-width:8.64"/>
	<line x1="1647.81" y1="1550.70" x2="1647.81" y2="1547.82" style="stroke:#000000;stroke-width:8.64"/>
	<line x1="1647.81" y1="1517.58" x2="1647.81" y2="1514.70" style="stroke:#000000;stroke-width:8.64"/>
	<line x1="1647.81" y1="1484.46" x2="1647.81" y2="1481.58" style="stroke:#000000;stroke-width:8.64"/>
	<line x1="1647.81" y1="1451.34" x2="1647.81" y2="1448.46" style="stroke:#000000;stroke-width:8.64"/>
	<line x1="1647.81" y1="1418.13" x2="1647.81" y2="1415.25" style="stroke:#000000;stroke-width:8.64"/>
	<line x1="1647.81" y1="1385.01" x2="1647.81" y2="1382.13" style="stroke:#000000;stroke-width:8.64"/>
	<line x1="1647.81" y1="1351.89" x2="1647.81" y2="1349.01" style="stroke:#000000;stroke-width:8.64"/>
	<line x1="1647.81" y1="1318.77" x2="1647.81" y2="1315.89" style="stroke:#000000;stroke-width:8.64"/>
	<line x1="1647.81" y1="1285.56" x2="1647.81" y2="1282.68" style="stroke:#000000;stroke-width:8.64"/>
	<line x1="1647.81" y1="1252.44" x2="1647.81" y2="1249.56" style="stroke:#000000;stroke-width:8.64"/>
	<line x1="1647.81" y1="1219.32" x2="1647.81" y2="1216.44" style="stroke:#000000;stroke-width:8.64"/>
	<line x1="1647.81" y1="1186.20" x2="1647.81" y2="1183.32" style="stroke:#000000;stroke-width:8.64"/>
	<line x1="1647.81" y1="1152.99" x2="1647.81" y2="1150.11" style="stroke:#000000;stroke-width:8.64"/>
	<line x1="1647.81" y1="1119.87" x2="1647.81" y2="1116.99" style="stroke:#000000;stroke-width:8.64"/>
	<line x1="1647.81" y1="1086.75" x2="1647.81" y2="1083.87" style="stroke:#000000;stroke-width:8.64"/>
	<line x1="1647.81" y1="1053.63" x2="1647.81" y2="1050.75" style="stroke:#000000;stroke-width:8.64"/>
	<line x1="1647.81" y1="1020.42" x2="1647.81" y2="1017.54" style="stroke:#000000;stroke-width:8.64"/>
	<line x1="1647.81" y1="987.30" x2="1647.81" y2="984.42" style="stroke:#000000;stroke-width:8.64"/>
	<line x1="1647.81" y1="954.18" x2="1647.81" y2="951.30" style="stroke:#000000;stroke-width:8.64"/>
	<line x1="1647.81" y1="921.06" x2="1647.81" y2="918.18" style="stroke:#000000;stroke-width:8.64"/>
	<line x1="1647.81" y1="887.85" x2="1647.81" y2="884.97" style="stroke:#000000;stroke-width:8.64"/>
	<line x1="1647.81" y1="854.73" x2="1647.81" y2="851.85" style="stroke:#000000;stroke-width:8.64"/>
	<line x1="1647.81" y1="821.61" x2="1647.81" y2="818.73" style="stroke:#000000;stroke-width:8.64"/>
	<line x1="1647.81" y1="788.49" x2="1647.81" y2="785.61" style="stroke:#000000;stroke-width:8.64"/>
	<line x1="1647.81" y1="755.28" x2="1647.81" y2="752.40" style="stroke:#000000;stroke-width:8.64"/>
	<line x1="1647.81" y1="722.16" x2="1647.81" y2="719.28" style="stroke:#000000;stroke-width:8.64"/>
	<line x1="1647.81" y1="689.04" x2="1647.81" y2="686.16" style="stroke:#000000;stroke-width:8.64"/>
	<line x1="1647.81" y1="655.92" x2="1647.81" y2="653.04" style="stroke:#000000;stroke-width:8.64"/>
	<line x1="1647.81" y1="622.71" x2="1647.81" y2="619.83" style="stroke:#000000;stroke-width:8.64"/>
	<line x1="1647.81" y1="589.59" x2="1647.81" y2="586.71" style="stroke:#000000;stroke-width:8.64"/>
	<line x1="1647.81" y1="556.47" x2="1647.81" y2="553.59" style="stroke:#000000;stroke-width:8.64"/>
	<line x1="1647.81" y1="523.35" x2="1647.81" y2="520.47" style="stroke:#000000;stroke-width:8.64"/>
	<line x1="1647.81" y1="490.14" x2="1647.81" y2="487.26" style="stroke:#000000;stroke-width:8.64"/>
	<line x1="1647.81" y1="457.02" x2="1647.81" y2="454.14" style="stroke:#000000;stroke-width:8.64"/>
	<line x1="1647.81" y1="423.90" x2="1647.81" y2="421.02" style="stroke:#000000;stroke-width:8.64"/>
	<line x1="1647.81" y1="390.78" x2="1647.81" y2="387.90" style="stroke:#000000;stroke-width:8.64"/>
	<line x1="1647.81" y1="357.57" x2="1647.81" y2="354.69" style="stroke:#000000;stroke-width:8.64"/>
	<line x1="1647.81" y1="324.45" x2="1647.81" y2="321.57" style="stroke:#000000;stroke-width:8.64"/>
	<line x1="1647.81" y1="291.33" x2="1647.81" y2="288.45" style="stroke:#000000;stroke-width:8.64"/>
	<line x1="390.78" y1="1161.63" x2="448.38" y2="1161.63" style="stroke:#404040;stroke-width:8.64"/>
	<line x1="477.18" y1="1161.63" x2="534.78" y2="1161.63" style="stroke:#404040;stroke-width:8.64"/>
	<line x1="563.58" y1="1161.63" x2="621.18" y2="1161.63" style="stroke:#404040;stroke-width:8.64"/>
	<line x1="649.98" y1="1161.63" x2="707.58" y2="1161.63" style="stroke:#404040;stroke-width:8.64"/>
	<line x1="736.38" y1="1161.63" x2="793.98" y2="1161.63" style="stroke:#404040;stroke-width:8.64"/>
	<line x1="822.78" y1="1161.63" x2="880.38" y2="1161.63" style="stroke:#404040;stroke-width:8.64"/>
	<line x1="909.18" y1="1161.63" x2="966.78" y2="1161.63" style="stroke:#404040;stroke-width:8.64"/>
	<line x1="995.58" y1="1161.63" x2="1053.18" y2="1161.63" style="stroke:#404040;stroke-width:8.64"/>
	<line x1="1081.98" y1="1161.63" x2="1139.58" y2="1161.63" style="stroke:#404040;stroke-width:8.64"/>
	<line x1="1168.38" y1="1161.63" x2="1225.98" y2="1161.63" style="stroke:#404040;stroke-width:8.64"/>
	<line x1="1254.78" y1="1161.63" x2="1312.38" y2="1161.63" style="stroke:#404040;stroke-width:8.64"/>
	<line x1="1341.18" y1="1161.63" x2="1398.78" y2="1161.63" style="stroke:#404040;stroke-width:8.64"/>
	<line x1="1427.58" y1="1161.63" x2="1485.18" y2="1161.63" style="stroke:#404040;stroke-width:8.64"/>
	<line x1="1513.98" y1="1161.63" x2="1571.58" y2="1161.63" style="stroke:#404040;stroke-width:8.64"/>
	<line x1="1600.38" y1="1161.63" x2="1657.98" y2="1161.63" style="stroke:#404040;stroke-width:8.64"/>
	<line x1="1686.78" y1="1161.63" x2="1744.38" y2="1161.63" style="stroke:#404040;stroke-width:8.64"/>
	<line x1="1773.18" y1="1161.63" x2="1830.78" y2="1161.63" style="stroke:#404040;stroke-width:8.64"/>
	<line x1="1859.58" y1="1161.63" x2="1917.18" y2="1161.63" style="stroke:#404040;stroke-width:8.64"/>
	<line x1="1945.98" y1="1161.63" x2="2003.58" y2="1161.63" style="stroke:#404040;stroke-width:8.64"/>
	<line x1="2032.38" y1="1161.63" x2="2089.98" y2="1161.63" style="stroke:#404040;stroke-width:8.64"/>
	<line x1="2118.78" y1="1161.63" x2="2176.38" y2="1161.63" style="stroke:#404040;stroke-width:8.64"/>
	<line x1="2205.18" y1="1161.63" x2="2262.78" y2="1161.63" style="stroke:#404040;stroke-width:8.64"/>
	<line x1="2291.58" y1="1161.63" x2="2349.18" y2="1161.63" style="stroke:#404040;stroke-width:8.64"/>
	<line x1="2377.98" y1="1161.63" x2="2435.58" y2="1161.63" style="stroke:#404040;stroke-width:8.64"/>
	<line x1="2464.38" y1="1161.63" x2="2521.98" y2="1161.63" style="stroke:#404040;stroke-width:8.64"/>
	<line x1="2550.78" y1="1161.63" x2="2608.38" y2="1161.63" style="stroke:#404040;stroke-width:8.64"/>
	<line x1="2637.18" y1="1161.63" x2="2694.78" y2="1161.63" style="stroke:#404040;stroke-width:8.64"/>
	<line x1="2723.58" y1="1161.63" x2="2779.20" y2="1161.63" style="stroke:#404040;stroke-width:8.64"/>
	<path d=" M390.78 1120.59 L422.19 1114.47 L453.60 1077.30 L485.01 1043.55 L516.42 1011.96 L547.92 1002.15 L579.33 1005.84 L610.74 960.93 L642.15 937.17 L673.56 921.06 L704.97 908.10 L736.47 894.51 L767.88 910.53 L799.29 935.28 L830.70 927.72 L862.11 935.28 L893.61 899.91 L925.02 864.81 L956.43 855.99 L987.84 859.95 L1019.25 843.21 L1050.66 828.36 L1082.16 823.77 L1113.57 801.18 L1144.98 785.16 L1176.39 768.42 L1207.80 759.24 L1239.30 769.32 L1270.71 764.46 L1302.12 768.51 L1333.53 760.77 L1364.94 740.79 L1396.35 746.10 L1427.85 736.92 L1459.26 736.29 L1490.67 734.31 L1522.08 733.68 L1553.49 753.75 L1584.99 737.73 L1616.40 751.68 L1647.81 756.90 L1679.22 751.50 L1710.63 771.48 L1742.04 764.64 L1773.54 757.62 L1804.95 775.35 L1836.36 757.80 L1867.77 777.60 L1899.18 779.40 L1930.68 776.79 L1962.09 762.57 L1993.50 782.55 L2024.91 756.27 L2056.32 749.43 L2087.73 745.02 L2119.23 735.21 L2150.64 723.69 L2182.05 729.99 L2213.46 715.59 L2244.87 714.24 L2276.37 712.98 L2307.78 708.75 L2339.19 701.64 L2370.60 694.26 L2402.01 689.85 L2433.42 676.89 L2464.92 666.45 L2496.33 666.45 L2527.74 672.57 L2559.15 657.99 L2590.56 665.28 L2622.06 647.55 L2653.47 646.20 L2684.88 659.52 L2716.29 641.79 L2747.70 641.79 L2779.20 641.88" stroke-linejoin="round" style="fill:none;stroke:#FFFFFF;stroke-width:8.64"/>
	<path d=" M390.78 1120.59 L422.19 1114.47 L453.60 1077.30 L485.01 1043.55 L516.42 1011.96 L547.92 1002.15 L579.33 1005.84 L610.74 960.93 L642.15 937.17 L673.56 921.06 L704.97 908.10 L736.47 894.51 L767.88 910.53 L799.29 935.28 L830.70 927.72 L862.11 935.28 L893.61 899.91 L925.02 864.81 L956.43 855.99 L987.84 859.95 L1019.25 843.21 L1050.66 828.36 L1082.16 823.77 L1113.57 801.18 L1144.98 785.16 L1176.39 768.42 L1207.80 759.24 L1239.30 769.32 L1270.71 764.46 L1302.12 768.51 L1333.53 760.77 L1364.94 740.79 L1396.35 746.10 L1427.85 736.92 L1459.26 736.29 L1490.67 734.31 L1522.08 733.68 L1553.49 753.75 L1584.99 737.73 L1616.40 751.68 L1647.81 756.90 L1679.22 751.50 L1710.63 771.48 L1742.04 764.64 L1773.54 757.62 L1804.95 775.35 L1836.36 757.80 L1867.77 777.60 L1899.18 779.40 L1930.68 776.79 L1962.09 762.57 L1993.50 782.55 L2024.91 756.27 L2056.32 749.43 L2087.73 745.02 L2119.23 735.21 L2150.64 723.69 L2182.05 729.99 L2213.46 715.59 L2244.87 714.24 L2276.37 712.98 L2307.78 708.75 L2339.19 701.64 L2370.60 694.26 L2402.01 689.85 L2433.42 676.89 L2464.92 666.45 L2496.33 666.45 L2527.74 672.57 L2559.15 657.99 L2590.56 665.28 L2622.06 647.55 L2653.47 646.20 L2684.88 659.52 L2716.29 641.79 L2747.70 641.79 L2779.20 641.88" stroke-linejoin="round" style="fill:none;stroke:#000000;stroke-width:8.64"/>
	<line x1="390.78" y1="2047.86" x2="390.78" y2="275.40" style="stroke:#000000;stroke-width:5.76"/>
	<line x1="390.78" y1="2047.86" x2="350.82" y2="2047.86" style="stroke:#000000;stroke-width:5.76"/>
	<text x="300.80" y="2047.86" style="font-family:'Helvetica';font-size:99.99px;fill:#000000" transform="rotate(-90 300.80,2047.86)" text-anchor="middle">-5</text>
	<line x1="390.78" y1="1693.35" x2="350.82" y2="1693.35" style="stroke:#000000;stroke-width:5.76"/>
	<text x="300.80" y="1693.35" style="font-family:'Helvetica';font-size:99.99px;fill:#000000" transform="rotate(-90 300.80,1693.35)" text-anchor="middle">-3</text>
	<line x1="390.78" y1="1338.84" x2="350.82" y2="1338.84" style="stroke:#000000;stroke-width:5.76"/>
	<text x="300.80" y="1338.84" style="font-family:'Helvetica';font-size:99.99px;fill:#000000" transform="rotate(-90 300.80,1338.84)" text-anchor="middle">-1</text>
	<line x1="390.78" y1="984.33" x2="350.82" y2="984.33" style="stroke:#000000;stroke-width:5.76"/>
	<text x="300.80" y="984.33" style="font-family:'Helvetica';font-size:99.99px;fill:#000000" transform="rotate(-90 300.80,984.33)" text-anchor="middle">1</text>
	<line x1="390.78" y1="629.82" x2="350.82" y2="629.82" style="stroke:#000000;stroke-width:5.76"/>
	<text x="300.80" y="629.82" style="font-family:'Helvetica';font-size:99.99px;fill:#000000" transform="rotate(-90 300.80,629.82)" text-anchor="middle">3</text>
	<line x1="390.78" y1="275.40" x2="350.82" y2="275.40" style="stroke:#000000;stroke-width:5.76"/>
	<text x="300.80" y="275.40" style="font-family:'Helvetica';font-size:99.99px;fill:#000000" transform="rotate(-90 300.80,275.40)" text-anchor="middle">5</text>
	<text x="190.73" y="1161.63" style="font-family:'Helvetica';font-size:99.99px;fill:#000000" transform="rotate(-90 190.73,1161.63)" text-anchor="middle"> Gap </text>
	<line x1="390.78" y1="2047.86" x2="2779.20" y2="2047.86" style="stroke:#000000;stroke-width:5.76"/>
	<line x1="390.78" y1="2047.86" x2="390.78" y2="2087.82" style="stroke:#000000;stroke-width:5.76"/>
	<text x="425.80" y="2107.89" style="font-family:'Helvetica';font-size:99.99px;fill:#000000" transform="rotate(-90 425.80,2107.89)" text-anchor="end">0</text>
	<line x1="799.38" y1="2047.86" x2="799.38" y2="2087.82" style="stroke:#000000;stroke-width:5.76"/>
	<text x="834.40" y="2107.89" style="font-family:'Helvetica';font-size:99.99px;fill:#000000" transform="rotate(-90 834.40,2107.89)" text-anchor="end">13</text>
	<line x1="1207.89" y1="2047.86" x2="1207.89" y2="2087.82" style="stroke:#000000;stroke-width:5.76"/>
	<text x="1242.91" y="2107.89" style="font-family:'Helvetica';font-size:99.99px;fill:#000000" transform="rotate(-90 1242.91,2107.89)" text-anchor="end">26</text>
	<line x1="1616.40" y1="2047.86" x2="1616.40" y2="2087.82" style="stroke:#000000;stroke-width:5.76"/>
	<text x="1651.42" y="2107.89" style="font-family:'Helvetica';font-size:99.99px;fill:#000000" transform="rotate(-90 1651.42,2107.89)" text-anchor="end">39</text>
	<line x1="2025.00" y1="2047.86" x2="2025.00" y2="2087.82" style="stroke:#000000;stroke-width:5.76"/>
	<text x="2060.02" y="2107.89" style="font-family:'Helvetica';font-size:99.99px;fill:#000000" transform="rotate(-90 2060.02,2107.89)" text-anchor="end">52</text>
	<line x1="2433.51" y1="2047.86" x2="2433.51" y2="2087.82" style="stroke:#000000;stroke-width:5.76"/>
	<text x="2468.53" y="2107.89" style="font-family:'Helvetica';font-size:99.99px;fill:#000000" transform="rotate(-90 2468.53,2107.89)" text-anchor="end">65</text>
	<line x1="2842.02" y1="2047.86" x2="2842.02" y2="2087.82" style="stroke:#000000;stroke-width:5.76"/>
	<text x="2877.04" y="2107.89" style="font-family:'Helvetica';font-size:99.99px;fill:#000000" transform="rotate(-90 2877.04,2107.89)" text-anchor="end">78</text>
	<text x="1584.99" y="2333.63" style="font-family:'Helvetica';font-size:99.99px;fill:#000000" text-anchor="middle"> </text>
	<rect x="1053.36" y="2418.21" width="1063.26" height="326.43" style="fill:#FFFFFF"/>
	<rect x="1056.24" y="2421.09" width="1057.50" height="320.67" style="fill:none;stroke:#000000;stroke-width:5.76"/>
	<line x1="1096.56" y1="2511.45" x2="1470.96" y2="2511.45" style="stroke:#FFFFFF;stroke-width:8.64"/>
	<line x1="1096.56" y1="2651.40" x2="1470.96" y2="2651.40" style="stroke:#000000;stroke-width:8.64"/>
	<text x="1530.99" y="2546.47" style="font-family:'Helvetica';font-size:99.99px;fill:#000000"> </text>
	<text x="1530.99" y="2686.42" style="font-family:'Helvetica';font-size:99.99px;fill:#000000"> Classic SC</text>
	<text x="1584.99" y="216.06" style="font-family:'Helvetica';font-size:140.04px;fill:#1E2D53" text-anchor="middle"> </text>
</svg>
